# xmcd
#
# Track frame offsets:
#	150
#	22254
#	38199
#	56804
#	76534
#	96559
#	109819
#	125769
#	148193
#	167987
#	191010
#	209322
#
# Disc length: 2983 seconds
# Revision: 4
# Processed by: cddbd v1.5.2PL0 Copyright (c) Steve Scherf et al.
# Submitted via: dBpowerAMP V12.0
#
DISCID=b50ba50c
DTITLE=Colin James - Hearts On Fire
DYEAR=2015
DGENRE=Blues
TTITLE0=Hearts On Fire
TTITLE1=Just A Little Love
TTITLE2=Dreams Come And Go
TTITLE3=Roll Me Sunday Morning
TTITLE4=Heartbreak Road
TTITLE5=Honey Bee
TTITLE6=Paper Airplanes
TTITLE7=Cry For Love
TTITLE8=How Does It Feel
TTITLE9=You Were Never Mine
TTITLE10=Stay
TTITLE11=I Wanna Sing
EXTD=
EXTT0=
EXTT1=
EXTT2=
EXTT3=
EXTT4=
EXTT5=
EXTT6=
EXTT7=
EXTT8=
EXTT9=
EXTT10=
EXTT11=
PLAYORDER=
